<?xml version="1.0" encoding="UTF-8" standalone="no"?><svg xmlns="http://www.w3.org/2000/svg" xmlns:xlink="http://www.w3.org/1999/xlink" contentScriptType="application/ecmascript" contentStyleType="text/css" height="328px" preserveAspectRatio="none" style="width:819px;height:328px;" version="1.1" viewBox="0 0 819 328" width="819px" zoomAndPan="magnify"><defs><filter height="300%" id="f1m4uc7i2x0twm" width="300%" x="-1" y="-1"><feGaussianBlur result="blurOut" stdDeviation="2.0"/><feColorMatrix in="blurOut" result="blurOut2" type="matrix" values="0 0 0 0 0 0 0 0 0 0 0 0 0 0 0 0 0 0 .4 0"/><feOffset dx="4.0" dy="4.0" in="blurOut2" result="blurOut3"/><feBlend in="SourceGraphic" in2="blurOut3" mode="normal"/></filter></defs><g><!--MD5=[7fb7c12d2691bca2ed06b43fb7c0b3a8]
class Items--><rect fill="#FEFECE" filter="url(#f1m4uc7i2x0twm)" height="60.8047" id="Items" style="stroke: #A80036; stroke-width: 1.5;" width="96" x="358" y="40"/><ellipse cx="386.5" cy="56" fill="#ADD1B2" rx="11" ry="11" style="stroke: #A80036; stroke-width: 1.0;"/><path d="M389.4688,61.6406 Q388.8906,61.9375 388.25,62.0859 Q387.6094,62.2344 386.9063,62.2344 Q384.4063,62.2344 383.0859,60.5859 Q381.7656,58.9375 381.7656,55.8125 Q381.7656,52.6875 383.0859,51.0313 Q384.4063,49.375 386.9063,49.375 Q387.6094,49.375 388.2578,49.5313 Q388.9063,49.6875 389.4688,49.9844 L389.4688,52.7031 Q388.8438,52.125 388.25,51.8516 Q387.6563,51.5781 387.0313,51.5781 Q385.6875,51.5781 385,52.6484 Q384.3125,53.7188 384.3125,55.8125 Q384.3125,57.9063 385,58.9766 Q385.6875,60.0469 387.0313,60.0469 Q387.6563,60.0469 388.25,59.7734 Q388.8438,59.5 389.4688,58.9219 L389.4688,61.6406 Z "/><text fill="#000000" font-family="sans-serif" font-size="12" lengthAdjust="spacingAndGlyphs" textLength="34" x="403.5" y="60.1543">Items</text><line style="stroke: #A80036; stroke-width: 1.5;" x1="359" x2="453" y1="72" y2="72"/><ellipse cx="369" cy="83" fill="none" rx="3" ry="3" style="stroke: #038048; stroke-width: 1.0;"/><text fill="#000000" font-family="sans-serif" font-size="11" lengthAdjust="spacingAndGlyphs" textLength="70" x="378" y="86.2104">item : item[]</text><line style="stroke: #A80036; stroke-width: 1.5;" x1="359" x2="453" y1="92.8047" y2="92.8047"/><!--MD5=[ab11aec9697a155806c72fa29b42d191]
class item--><rect fill="#FEFECE" filter="url(#f1m4uc7i2x0twm)" height="124.8281" id="item" style="stroke: #A80036; stroke-width: 1.5;" width="191" x="310.5" y="193"/><ellipse cx="388.25" cy="209" fill="#ADD1B2" rx="11" ry="11" style="stroke: #A80036; stroke-width: 1.0;"/><path d="M391.2188,214.6406 Q390.6406,214.9375 390,215.0859 Q389.3594,215.2344 388.6563,215.2344 Q386.1563,215.2344 384.8359,213.5859 Q383.5156,211.9375 383.5156,208.8125 Q383.5156,205.6875 384.8359,204.0313 Q386.1563,202.375 388.6563,202.375 Q389.3594,202.375 390.0078,202.5313 Q390.6563,202.6875 391.2188,202.9844 L391.2188,205.7031 Q390.5938,205.125 390,204.8516 Q389.4063,204.5781 388.7813,204.5781 Q387.4375,204.5781 386.75,205.6484 Q386.0625,206.7188 386.0625,208.8125 Q386.0625,210.9063 386.75,211.9766 Q387.4375,213.0469 388.7813,213.0469 Q389.4063,213.0469 390,212.7734 Q390.5938,212.5 391.2188,211.9219 L391.2188,214.6406 Z "/><text fill="#000000" font-family="sans-serif" font-size="12" lengthAdjust="spacingAndGlyphs" textLength="27" x="408.75" y="213.1543">item</text><line style="stroke: #A80036; stroke-width: 1.5;" x1="311.5" x2="500.5" y1="225" y2="225"/><ellipse cx="321.5" cy="236" fill="none" rx="3" ry="3" style="stroke: #038048; stroke-width: 1.0;"/><text fill="#000000" font-family="sans-serif" font-size="11" lengthAdjust="spacingAndGlyphs" textLength="145" x="330.5" y="239.2104">productName : xsd:string</text><ellipse cx="321.5" cy="248.8047" fill="none" rx="3" ry="3" style="stroke: #038048; stroke-width: 1.0;"/><text fill="#000000" font-family="sans-serif" font-size="11" lengthAdjust="spacingAndGlyphs" textLength="165" x="330.5" y="252.0151">quantity : xsd:positiveInteger</text><ellipse cx="321.5" cy="261.6094" fill="none" rx="3" ry="3" style="stroke: #038048; stroke-width: 1.0;"/><text fill="#000000" font-family="sans-serif" font-size="11" lengthAdjust="spacingAndGlyphs" textLength="124" x="330.5" y="264.8198">USPrice : xsd:decimal</text><ellipse cx="321.5" cy="274.4141" fill="none" rx="3" ry="3" style="stroke: #038048; stroke-width: 1.0;"/><text fill="#000000" font-family="sans-serif" font-size="11" lengthAdjust="spacingAndGlyphs" textLength="118" x="330.5" y="277.6245">comment : comment</text><ellipse cx="321.5" cy="287.2188" fill="none" rx="3" ry="3" style="stroke: #038048; stroke-width: 1.0;"/><text fill="#000000" font-family="sans-serif" font-size="11" lengthAdjust="spacingAndGlyphs" textLength="111" x="330.5" y="290.4292">shipDate : xsd:date</text><ellipse cx="321.5" cy="300.0234" fill="none" rx="3" ry="3" style="stroke: #038048; stroke-width: 1.0;"/><text fill="#000000" font-family="sans-serif" font-size="11" lengthAdjust="spacingAndGlyphs" textLength="118" x="330.5" y="303.2339">partNum : xsd:string</text><line style="stroke: #A80036; stroke-width: 1.5;" x1="311.5" x2="500.5" y1="309.8281" y2="309.8281"/><!--MD5=[7695e888613c210df5bd1ba002c7741b]
class PurchaseOrderType--><rect fill="#FEFECE" filter="url(#f1m4uc7i2x0twm)" height="112.0234" id="PurchaseOrderType" style="stroke: #A80036; stroke-width: 1.5;" width="155" x="167.5" y="14.5"/><ellipse cx="182.5" cy="30.5" fill="#ADD1B2" rx="11" ry="11" style="stroke: #A80036; stroke-width: 1.0;"/><path d="M185.4688,36.1406 Q184.8906,36.4375 184.25,36.5859 Q183.6094,36.7344 182.9063,36.7344 Q180.4063,36.7344 179.0859,35.0859 Q177.7656,33.4375 177.7656,30.3125 Q177.7656,27.1875 179.0859,25.5313 Q180.4063,23.875 182.9063,23.875 Q183.6094,23.875 184.2578,24.0313 Q184.9063,24.1875 185.4688,24.4844 L185.4688,27.2031 Q184.8438,26.625 184.25,26.3516 Q183.6563,26.0781 183.0313,26.0781 Q181.6875,26.0781 181,27.1484 Q180.3125,28.2188 180.3125,30.3125 Q180.3125,32.4063 181,33.4766 Q181.6875,34.5469 183.0313,34.5469 Q183.6563,34.5469 184.25,34.2734 Q184.8438,34 185.4688,33.4219 L185.4688,36.1406 Z "/><text fill="#000000" font-family="sans-serif" font-size="12" lengthAdjust="spacingAndGlyphs" textLength="123" x="196.5" y="34.6543">PurchaseOrderType</text><line style="stroke: #A80036; stroke-width: 1.5;" x1="168.5" x2="321.5" y1="46.5" y2="46.5"/><ellipse cx="178.5" cy="57.5" fill="none" rx="3" ry="3" style="stroke: #038048; stroke-width: 1.0;"/><text fill="#000000" font-family="sans-serif" font-size="11" lengthAdjust="spacingAndGlyphs" textLength="113" x="187.5" y="60.7104">shipTo : USAddress</text><ellipse cx="178.5" cy="70.3047" fill="none" rx="3" ry="3" style="stroke: #038048; stroke-width: 1.0;"/><text fill="#000000" font-family="sans-serif" font-size="11" lengthAdjust="spacingAndGlyphs" textLength="105" x="187.5" y="73.5151">billTo : USAddress</text><ellipse cx="178.5" cy="83.1094" fill="none" rx="3" ry="3" style="stroke: #038048; stroke-width: 1.0;"/><text fill="#000000" font-family="sans-serif" font-size="11" lengthAdjust="spacingAndGlyphs" textLength="118" x="187.5" y="86.3198">comment : comment</text><ellipse cx="178.5" cy="95.9141" fill="none" rx="3" ry="3" style="stroke: #038048; stroke-width: 1.0;"/><text fill="#000000" font-family="sans-serif" font-size="11" lengthAdjust="spacingAndGlyphs" textLength="76" x="187.5" y="99.1245">items : Items</text><ellipse cx="178.5" cy="108.7188" fill="none" rx="3" ry="3" style="stroke: #038048; stroke-width: 1.0;"/><text fill="#000000" font-family="sans-serif" font-size="11" lengthAdjust="spacingAndGlyphs" textLength="118" x="187.5" y="111.9292">orderDate : xsd:date</text><line style="stroke: #A80036; stroke-width: 1.5;" x1="168.5" x2="321.5" y1="118.5234" y2="118.5234"/><!--MD5=[9b797913e8bdb3b84ea9513844d60725]
class USAddress--><rect fill="#FEFECE" filter="url(#f1m4uc7i2x0twm)" height="124.8281" id="USAddress" style="stroke: #A80036; stroke-width: 1.5;" width="159" x="489.5" y="8"/><ellipse cx="531.05" cy="24" fill="#ADD1B2" rx="11" ry="11" style="stroke: #A80036; stroke-width: 1.0;"/><path d="M534.0188,29.6406 Q533.4406,29.9375 532.8,30.0859 Q532.1594,30.2344 531.4563,30.2344 Q528.9563,30.2344 527.6359,28.5859 Q526.3156,26.9375 526.3156,23.8125 Q526.3156,20.6875 527.6359,19.0313 Q528.9563,17.375 531.4563,17.375 Q532.1594,17.375 532.8078,17.5313 Q533.4563,17.6875 534.0188,17.9844 L534.0188,20.7031 Q533.3938,20.125 532.8,19.8516 Q532.2063,19.5781 531.5813,19.5781 Q530.2375,19.5781 529.55,20.6484 Q528.8625,21.7188 528.8625,23.8125 Q528.8625,25.9063 529.55,26.9766 Q530.2375,28.0469 531.5813,28.0469 Q532.2063,28.0469 532.8,27.7734 Q533.3938,27.5 534.0188,26.9219 L534.0188,29.6406 Z "/><text fill="#000000" font-family="sans-serif" font-size="12" lengthAdjust="spacingAndGlyphs" textLength="68" x="550.95" y="28.1543">USAddress</text><line style="stroke: #A80036; stroke-width: 1.5;" x1="490.5" x2="647.5" y1="40" y2="40"/><ellipse cx="500.5" cy="51" fill="none" rx="3" ry="3" style="stroke: #038048; stroke-width: 1.0;"/><text fill="#000000" font-family="sans-serif" font-size="11" lengthAdjust="spacingAndGlyphs" textLength="101" x="509.5" y="54.2104">name : xsd:string</text><ellipse cx="500.5" cy="63.8047" fill="none" rx="3" ry="3" style="stroke: #038048; stroke-width: 1.0;"/><text fill="#000000" font-family="sans-serif" font-size="11" lengthAdjust="spacingAndGlyphs" textLength="103" x="509.5" y="67.0151">street : xsd:string</text><ellipse cx="500.5" cy="76.6094" fill="none" rx="3" ry="3" style="stroke: #038048; stroke-width: 1.0;"/><text fill="#000000" font-family="sans-serif" font-size="11" lengthAdjust="spacingAndGlyphs" textLength="88" x="509.5" y="79.8198">city : xsd:string</text><ellipse cx="500.5" cy="89.4141" fill="none" rx="3" ry="3" style="stroke: #038048; stroke-width: 1.0;"/><text fill="#000000" font-family="sans-serif" font-size="11" lengthAdjust="spacingAndGlyphs" textLength="98" x="509.5" y="92.6245">state : xsd:string</text><ellipse cx="500.5" cy="102.2188" fill="none" rx="3" ry="3" style="stroke: #038048; stroke-width: 1.0;"/><text fill="#000000" font-family="sans-serif" font-size="11" lengthAdjust="spacingAndGlyphs" textLength="95" x="509.5" y="105.4292">zip : xsd:decimal</text><ellipse cx="500.5" cy="115.0234" fill="none" rx="3" ry="3" style="stroke: #038048; stroke-width: 1.0;"/><text fill="#000000" font-family="sans-serif" font-size="11" lengthAdjust="spacingAndGlyphs" textLength="133" x="509.5" y="118.2339">country : xsd:NMTOKEN</text><line style="stroke: #A80036; stroke-width: 1.5;" x1="490.5" x2="647.5" y1="124.8281" y2="124.8281"/><!--MD5=[aa1236345582ea84fba1a2018df43fcb]
class comment--><rect fill="#FEFECE" filter="url(#f1m4uc7i2x0twm)" height="60.8047" id="comment" style="stroke: #A80036; stroke-width: 1.5;" width="125" x="683.5" y="40"/><ellipse cx="714.25" cy="56" fill="#ADD1B2" rx="11" ry="11" style="stroke: #A80036; stroke-width: 1.0;"/><path d="M717.2188,61.6406 Q716.6406,61.9375 716,62.0859 Q715.3594,62.2344 714.6563,62.2344 Q712.1563,62.2344 710.8359,60.5859 Q709.5156,58.9375 709.5156,55.8125 Q709.5156,52.6875 710.8359,51.0313 Q712.1563,49.375 714.6563,49.375 Q715.3594,49.375 716.0078,49.5313 Q716.6563,49.6875 717.2188,49.9844 L717.2188,52.7031 Q716.5938,52.125 716,51.8516 Q715.4063,51.5781 714.7813,51.5781 Q713.4375,51.5781 712.75,52.6484 Q712.0625,53.7188 712.0625,55.8125 Q712.0625,57.9063 712.75,58.9766 Q713.4375,60.0469 714.7813,60.0469 Q715.4063,60.0469 716,59.7734 Q716.5938,59.5 717.2188,58.9219 L717.2188,61.6406 Z "/><text fill="#000000" font-family="sans-serif" font-size="12" lengthAdjust="spacingAndGlyphs" textLength="58" x="731.75" y="60.1543">comment</text><line style="stroke: #A80036; stroke-width: 1.5;" x1="684.5" x2="807.5" y1="72" y2="72"/><ellipse cx="694.5" cy="83" fill="none" rx="3" ry="3" style="stroke: #038048; stroke-width: 1.0;"/><text fill="#000000" font-family="sans-serif" font-size="11" lengthAdjust="spacingAndGlyphs" textLength="99" x="703.5" y="86.2104">value : xsd:string</text><line style="stroke: #A80036; stroke-width: 1.5;" x1="684.5" x2="807.5" y1="92.8047" y2="92.8047"/><!--MD5=[0596e4bdec064740a704528008eed5fb]
class purchaseOrder--><rect fill="#FEFECE" filter="url(#f1m4uc7i2x0twm)" height="48" id="purchaseOrder" style="stroke: #A80036; stroke-width: 1.5;" width="126" x="6" y="46.5"/><ellipse cx="21" cy="62.5" fill="#ADD1B2" rx="11" ry="11" style="stroke: #A80036; stroke-width: 1.0;"/><path d="M23.9688,68.1406 Q23.3906,68.4375 22.75,68.5859 Q22.1094,68.7344 21.4063,68.7344 Q18.9063,68.7344 17.5859,67.0859 Q16.2656,65.4375 16.2656,62.3125 Q16.2656,59.1875 17.5859,57.5313 Q18.9063,55.875 21.4063,55.875 Q22.1094,55.875 22.7578,56.0313 Q23.4063,56.1875 23.9688,56.4844 L23.9688,59.2031 Q23.3438,58.625 22.75,58.3516 Q22.1563,58.0781 21.5313,58.0781 Q20.1875,58.0781 19.5,59.1484 Q18.8125,60.2188 18.8125,62.3125 Q18.8125,64.4063 19.5,65.4766 Q20.1875,66.5469 21.5313,66.5469 Q22.1563,66.5469 22.75,66.2734 Q23.3438,66 23.9688,65.4219 L23.9688,68.1406 Z "/><text fill="#000000" font-family="sans-serif" font-size="12" lengthAdjust="spacingAndGlyphs" textLength="94" x="35" y="66.6543">purchaseOrder</text><line style="stroke: #A80036; stroke-width: 1.5;" x1="7" x2="131" y1="78.5" y2="78.5"/><line style="stroke: #A80036; stroke-width: 1.5;" x1="7" x2="131" y1="86.5" y2="86.5"/><!--MD5=[0894b6da392428c693ca18888b5b4dc2]
reverse link Items to item--><path d="M406,116.0769 C406,139.1596 406,167.5451 406,192.6658 " fill="none" id="Items&lt;-item" style="stroke: #A80036; stroke-width: 1.0;"/><ellipse cx="406" cy="109.049" fill="#FFFFFF" rx="8" ry="8" style="stroke: #A80036; stroke-width: 1.0;"/><line style="stroke: #A80036; stroke-width: 1.0;" x1="406" x2="406" y1="117.049" y2="101.049"/><line style="stroke: #A80036; stroke-width: 1.0;" x1="398" x2="414" y1="109.049" y2="109.049"/><!--MD5=[05ebd5581c27956f26685a24ac992295]
reverse link purchaseOrder to PurchaseOrderType--><path d="M145.4629,70.5 C152.8034,70.5 160.1439,70.5 167.4844,70.5 " fill="none" id="purchaseOrder&lt;-PurchaseOrderType" style="stroke: #A80036; stroke-width: 1.0;"/><polygon fill="#A80036" points="132.25,70.5,138.25,74.5,144.25,70.5,138.25,66.5,132.25,70.5" style="stroke: #A80036; stroke-width: 1.0;"/><!--MD5=[3d732e292fdadbff6570d7869dfa2010]
@startuml

class Items {
    +item : item[]
}
Items +- - item
class item {
    +productName : xsd:string
    +quantity : xsd:positiveInteger
    +USPrice : xsd:decimal
    +comment : comment
    +shipDate : xsd:date
    +partNum : xsd:string
}
class PurchaseOrderType {
    +shipTo : USAddress
    +billTo : USAddress
    +comment : comment
    +items : Items
    +orderDate : xsd:date
}
class USAddress {
    +name : xsd:string
    +street : xsd:string
    +city : xsd:string
    +state : xsd:string
    +zip : xsd:decimal
    +country : xsd:NMTOKEN
}
class comment {
    +value : xsd:string
}
class purchaseOrder {
}
purchaseOrder *- PurchaseOrderType

@enduml

PlantUML version 1.2019.13(Tue Dec 10 19:18:29 EET 2019)
(GPL source distribution)
Java Runtime: Java(TM) SE Runtime Environment
JVM: Java HotSpot(TM) 64-Bit Server VM
Java Version: 1.8.0_201-b09
Operating System: Linux
Default Encoding: UTF-8
Language: en
Country: US
--></g></svg>
