<svg version="1.2" xmlns="http://www.w3.org/2000/svg" viewBox="0 0 87 69" width="87" height="69"><style>.a{fill:#1d73c9}</style><path class="a" d="m26.1 43.2q1 0.9 1.1 1.9 0.2 0.9-0.3 1.6-0.4 0.7-1.4 1-0.9 0.4-2.1 0.1-5.1-2.8-10.1-5.6-5-2.8-10.1-5.6-1.7-1-1.7-2.4 0-1.4 1.7-2.4l20-10q1.2-0.3 2.2 0.1 0.9 0.3 1.4 1 0.4 0.7 0.2 1.7-0.1 0.9-1.2 1.8l-15.7 7.9zm9.3 2.8l10.6-30.2q0.3-0.9 1.2-1.3 1-0.4 2.3 0 1.2 0.5 1.6 1.5 0.4 1 0.1 1.9l-10.6 30.2q-0.3 0.9-1.2 1.4-1 0.4-2.2 0-1.2-0.5-1.7-1.5-0.4-1.1-0.1-2zm25.6-19.6q-1.3-1.1-1.3-2.3 0-0.6 0.3-1.1 0.2-0.5 0.7-0.8 0.5-0.4 1-0.5 0.7-0.1 1.4 0.1 5.2 2.8 10.4 5.6 5.1 2.7 10.3 5.6 1.6 1 1.6 2.4 0 0.6-0.4 1.3-0.4 0.6-1.2 1.1l-20.5 10q-0.7 0.2-1.3 0.1-0.6-0.1-1.1-0.4-0.5-0.4-0.7-0.9-0.3-0.5-0.3-1.1 0-1.2 1.3-2.3l15.8-7.9q-8.1-4.4-16-8.9z"/></svg>
